<?xml version="1.0" encoding="UTF-8"?><svg id="a" xmlns="http://www.w3.org/2000/svg" xmlns:xlink="http://www.w3.org/1999/xlink" viewBox="0 0 329.84 332.82"><defs><style>.c{fill:url(#b);fill-rule:evenodd;}</style><linearGradient id="b" x1="164.92" y1="3" x2="164.92" y2="333.15" gradientTransform="matrix(1, 0, 0, 1, 0, 0)" gradientUnits="userSpaceOnUse"><stop offset="0" stop-color="#1a6dff"/><stop offset="1" stop-color="#c822ff"/></linearGradient></defs><path class="c" d="M329.84,204.85c-4.72,22.72-25.68,81.04-92.54,112.62l-26.85-30.19-45.31,45.54c-25.78-.35-51.12-6.65-74.06-18.41-22.94-11.76-42.85-28.68-58.16-49.41,4.81,1.5,9.78,2.44,14.81,2.79,7.42,.14,15.45-2.59,15.45-15.04v-122.9c.1-3.16-.53-6.3-1.86-9.17-1.32-2.87-3.3-5.39-5.77-7.36-2.47-1.97-5.37-3.34-8.46-3.99-3.09-.65-6.3-.57-9.35,.23C16.76,114.39,0,166.73,0,166.73c-.24-24.16,4.8-48.09,14.74-70.11,9.95-22.02,24.57-41.62,42.85-57.42C81.67,18.39,111.13,4.8,142.58,0c-22.91,13.05-35.77,34.33-35.77,52.19,0,28.74,17.31,25.26,22.43,21.03V239.08c.87,2.08,2.01,4.04,3.38,5.83,2.29,3.17,5.3,5.74,8.78,7.5,3.49,1.76,7.34,2.67,11.25,2.64,17.33,0,39.81-19.78,39.81-19.78V101.02c0-13.66-10.29-30.16-20.61-35.82,0,0,19.09-3.38,33.81,7.89,2.77-3.38,5.71-6.61,8.81-9.69,34.37-33.73,66.74-43.33,93.7-48.13,0,0-49.02,38.53-49.02,90.22,0,38.44,1,132.19,1,132.19,18.19,17.56,45.24-7.81,69.68-32.85Z"/></svg>