<svg id="Livello_1" data-name="Livello 1" xmlns="http://www.w3.org/2000/svg" xmlns:xlink="http://www.w3.org/1999/xlink" viewBox="0 0 3840 3840"><defs><style>.cls-1{fill:#ffc33e;}.cls-2{fill:#fff;}.cls-3{fill:#f2c3af;}.cls-4{fill:#201c21;}.cls-5{fill:#d69a85;}.cls-6{fill:url(#Sfumatura_senza_nome_26);}.cls-7{fill:#edae9f;}.cls-8{fill:#f9e2d9;}.cls-9{fill:#ddaf9f;}.cls-10{fill:#140601;}.cls-11{fill:#491107;}.cls-12{fill:#ffebcc;}.cls-13{fill:#9b5656;}.cls-14{fill:#fff9f0;}.cls-15{fill:#c4614d;}.cls-16{fill:#070707;}</style><linearGradient id="Sfumatura_senza_nome_26" x1="1856.1" y1="1511" x2="1909.81" y2="1479.99" gradientUnits="userSpaceOnUse"><stop offset="0" stop-color="#fff9f0" stop-opacity="0.2"/><stop offset="0.53" stop-color="#fff9f0" stop-opacity="0.26"/><stop offset="1" stop-color="#fff9f0" stop-opacity="0.3"/></linearGradient></defs><title>Tavola disegno 1</title><circle class="cls-1" cx="1884" cy="2116" r="1400"/><path class="cls-2" d="M1874.24,3541A1426.52,1426.52,0,0,1,545.18,2605.15l7.21-27.56a251.41,251.41,0,0,0,19.07-18.16l1.94-2.08c10-10.7,25.09-26.88,50.86-34a84.5,84.5,0,0,1,22.91-3.11,147,147,0,0,1,22.12,2.07,138.26,138.26,0,0,0,20.92,1.95,98.21,98.21,0,0,0,16.64-1.47,52.82,52.82,0,0,0,11.87-3.2,158.76,158.76,0,0,1,20.53-6.18,254.38,254.38,0,0,1,58.6-6.77c11.36,0,20.18.75,24.91,1.16l1.88.15c2.3.18,4.88.27,7.68.27,56.29,0,182.53-34.71,276-66.95,223.88-77.24,264-98.3,294.77-135.53,18.47-22.36,33.82-51.17,34-51.46l1.45-.91c0-.15,0-.3,0-.45-3.83-98.27-13.57-203-29-311.35-17.17-26.55-28.89-47.7-34.5-58.27-27.56-51.89-47.83-106.38-62-166.57-9.79-41.65-16.63-85.88-21.25-137.75a65.64,65.64,0,0,1-16.39-5.55l-1.92-1.07c-13.93-8.62-26-23.23-38.07-46-14.61-27.59-15.15-53-15.58-73.4a191.15,191.15,0,0,0-1.25-21.81c-3.33-23.64-7.77-34-14.51-49.71-7.51-17.51-16.86-39.29-27.56-84.83-13.76-58.58-29.37-125,10.29-168.61,6.1-6.71,28.49-28.64,60.44-28.82h.42a68.1,68.1,0,0,1,8.86.56c-3.83-43-7.59-101.44-6.34-156.2,2.21-97.49,29.36-264.88,61-334.57a530.17,530.17,0,0,1,76.36-121A545.55,545.55,0,0,1,1538,363.42c98.34-55.58,229.58-63.88,299.06-63.88,56.31,0,112.27,5.25,157.56,14.79,67.07,14.12,138.45,55.09,186.52,87,54.19,36,104.75,78.12,125.81,104.93,29.62,37.7,38.65,83,41.39,105.47,14.87,10.85,38.22,33.56,51.76,75.48,17.37,53.74,31,143.48,41.6,274.35,5.66,69.7,2.17,124.55-3,162.71a80,80,0,0,1,14.35-1.28c26.74,0,51.9,12.19,65.64,31.81,7.66,10.93,8.9,20,10.61,32.51.81,5.9,1.81,13.24,3.75,23.67,2.62,14.09,4.86,22.57,6.66,29.38,1.16,4.41,2.17,8.22,3,12.42,6,30.35-3.37,51.49-14.21,76-5.7,12.87-12.16,27.46-18.3,47-13.49,42.88-22,98.5-26.12,125.23l-.62,4.1c-3.84,25.35-7.81,51.57-30.75,70.67a86.33,86.33,0,0,1-53.6,19.52c-1,0-1.9,0-2.84,0-3.36,33.81-8.56,62.22-15.53,84.72-9.71,31.37-22.94,74.07-43.2,122-9.82,80.54-22,224.95,2,313.88,8.17,30.26,23.21,56.34,46,79.69,7.8,6.66,16.75,13.85,26.62,21.4l.84.27a391.11,391.11,0,0,0,39.87,26,378.79,378.79,0,0,0,61.2,27.77l1.91.69c34.32,12.45,55,25.52,81.21,42.08,20,12.61,44.79,28.31,83.79,48.87,16,8.43,20.4,10.36,32.22,15.52,13.3,5.8,35.55,15.51,92,42.28l11.14,5.29c38.12,18.11,81.31,38.64,138.69,62.14,16.44,6.74,60.1,24.62,105.77,26.21,2.48.08,5.05.13,7.64.13a253.44,253.44,0,0,0,32.15-2.05,165.58,165.58,0,0,0,29.48-7,146.37,146.37,0,0,1,23.14-5.87,108.44,108.44,0,0,1,16.48-1.29c22.79,0,40.64,7.32,57.9,14.39l1.75.72,14.38,30.63A1423.53,1423.53,0,0,1,1896,3540.94c-4.23,0-8.42.06-12.61.06Z"/><g id="Avatar"><path class="cls-3" d="M2420,2886l289.07-454.5s-237.92-129.62-340.63-217.76h0c-19.43-19.74-41.43-48.53-53-91.46-38.62-143.06,10.28-411.7,10.28-411.7l-917.27,73.32s45.32,218.79,55,468c.14,3.57.09,7.1-.09,10.63-32.44,62.63-108.91,131.81-108.91,131.81L1465,2942Z"/><path class="cls-4" d="M3157,2523.88c-16.78,2.61-25.53,8.95-52.87,12.95a277,277,0,0,1-44.24,2.15c-49.14-1.7-95.47-20.31-114.38-28.05-63.67-26.08-109.75-48.38-151.07-68-106.31-50.42-89.61-39.52-125.17-58.27-90.51-47.73-105.07-69-161.86-89.56A404.16,404.16,0,0,1,2397.79,2237l-4.95.16c24,39.56-106.69,210.48-200.1,294.33-42.27,37.94-284.33,216.56-522.1,97.61-93.94-47-197.09-148-213.65-271.92-5-37.42,4.17-64.29,6.17-91.3l-4,.12s-16.37,31-36.79,55.69c-36,43.65-84,66.69-305.9,143.24-84.36,29.11-233.77,72.62-293.75,68a237.11,237.11,0,0,0-77.69,4.85c-19.09,4.52-18.4,7.07-34,9.71-38.73,6.57-53.52-7.35-80.12,0-20.46,5.66-32.24,19.57-41.27,29.14a271.63,271.63,0,0,1-21,20c195,533.63,705.5,915.35,1305.69,919.41h4.71l4.36,0c4.14,0,8.28,0,12.41-.06,621.66-5.14,1146.72-415.46,1324-979.81C3199.84,2527.94,3181.64,2520.05,3157,2523.88Z"/><polygon class="cls-3" points="1847.49 537.27 1451.49 600.39 1339.82 787.33 1328.72 1227.8 1328.72 1543.02 1469.94 1907.2 1696.54 2125.7 1974.94 2125.7 2233.91 1832.74 2356.92 1555.96 2367.85 1403.01 2359.08 1195.56 2334.26 834.08 2217.72 602.62 1847.49 537.27"/><path class="cls-5" d="M1720,1424.05s-59.39,48.92-47.75,76.88c4.23,10.17,8.11,21.76,45.73,26.3,40.06,4.85,47.11-4.23,72,6.07,26.86,11.11,39.7,26.11,56.25,26.71,22.25.81,26.9-4.87,58.67-16.19,18.56-6.6,42.09-8.9,56.65-8.9,38.09,0,43.3-22.66,43.3-22.66s-4.29,20.79-22.66,32.37c-17.51,11-30.15-.09-54.22,6.48-26.12,7.12-27,30-54.55,39.17-13,4.36-32,9.67-62.8-5.18-24.67-11.9-21.19-26.32-43.7-34.8-24.85-9.37-36.33,2.58-61.51-5.67-21-6.88-39.8-18.77-42.14-42.69C1658.94,1457.39,1720,1424.05,1720,1424.05Z"/><path class="cls-6" d="M1866,1526.44c-6.82-3.77-5.06-22.39,3.44-37.76,10.34-18.71,20.2-30.53,29.38-25.19,7.91,4.6,12.07,27.71,3,42.18C1895.3,1516,1876.71,1532.38,1866,1526.44Z"/><path class="cls-7" d="M1732.13,1237.84c2.74.15,6.63,19.73,4,32.58-12,57.66-168.51,34.12-166.49,32.59s64.33-.83,116.11-17c8.22-2.57,23.25-7.86,32.15-18.56C1730,1252.84,1729.23,1237.69,1732.13,1237.84Z"/><path class="cls-7" d="M1961,1251.93c-2.73.2-6.22,19.86-3.28,32.66,13.2,57.39,169.17,30.61,167.12,29.12s-64.32.51-116.43-14.58c-8.27-2.4-23.41-7.38-32.53-17.89C1963.43,1266.88,1963.9,1251.72,1961,1251.93Z"/><g id="LeftEar"><path class="cls-3" d="M1317,1195.42c-21.65-29.33-33-71.42-69.6-71.21-23,.13-39.52,17.81-42.08,20.63-30.19,33.23-17.68,89.79-4.45,146.08,20.13,85.66,34.8,82.14,42.49,136.77,3.71,26.37-2.87,54.84,14.16,87,9,17.06,18.34,29.74,29.13,36.42,11.27,5.66,32,7,42.49-2.83,13.45-12.52,5.56-39.25,0-67.58-6.08-31-6.89-62.76-8.5-126.25C1318.19,1258.27,1347.17,1236.34,1317,1195.42Z"/><path class="cls-7" d="M1251.43,1173.17s-17.62-22.94-29.94-18.61c-18.06,6.33-15.53,56.82-14.57,76.07,1.24,24.73,4.89,32.82,21,104.4,9.42,41.72,14.57,56.65,14.57,56.65s.68-30.84-2.43-59.89c-2.74-25.54-5.2-33.86-15.38-85-8.19-41.14-2.06-59.43,7.29-67.17A27.38,27.38,0,0,1,1251.43,1173.17Z"/><path class="cls-7" d="M1308.89,1275.14c-5.2-2.74-28.84,22.25-39.66,53.41-11.1,32-10,74.19,4,79.31,10.3,3.75,29.6-11.68,29.94-25.89.34-13.87-17.6-16.31-19.42-32.38-1.61-14.22,11.7-19,21-46.93C1305.69,1300.12,1313.27,1277.45,1308.89,1275.14Z"/></g><g id="RightEar"><path class="cls-3" d="M2392,1197.72c16.13-25.65,27.53-43.8,49.64-48.56,20.48-4.41,45.26,3.72,56.65,20,6.46,9.22,4.44,15.12,10.25,46.4,4.4,23.69,7.87,32.75,9.71,42.08,7,35.5-13.76,53.13-31.83,110.61-14.06,44.7-22.83,101.87-27,129-3.92,25.56-6.11,45.56-22.66,59.34-13.32,11.1-36.72,18.81-56.65,9.71-3.18-1.45-13.42-6.29-19.42-17.26-9.54-17.44-1.47-37.82,2.7-51.79,5-16.68,3.85-47.27,1.62-108.45-2.58-70.52-11.95-67.41-7-102.51C2364.1,1242.77,2381.82,1213.9,2392,1197.72Z"/><path class="cls-7" d="M2453.5,1205.81s15.22-20.1,26.43-17.26c4.9,1.23,10.41,5.31,16.19,20,10,25.37,8.31,50.68,4.32,73.37-6.44,36.55-15.23,35.16-22.66,74.46-5.78,30.54-4,53.88-7,54s-6.67-18.12-7.55-35.07c-1.3-24.87,4.23-31.79,8.63-62.58,5.63-39.37,10.14-70.83-7-90.1C2459.66,1216.72,2453.5,1205.81,2453.5,1205.81Z"/><path class="cls-7" d="M2380.12,1316.41c-2.88-10,2.09-23.57,9.71-25.89,12.09-3.68,28.82,21.57,35.61,31.83,9.76,14.73,32.63,49.26,19.43,76.07-4.61,9.36-15.19,21-24.82,18.89-8-1.74-13.76-12.53-13.49-21.59.28-9.58,7.15-10.58,9.17-20.5,3.47-17-12.5-34.75-16.19-38.84C2389.29,1325,2382.62,1325.1,2380.12,1316.41Z"/></g><path class="cls-8" d="M1583,600c5.74,11.91-55,34.93-68,96-6.64,31.12-7.51,57.13-13,89-10,58-39.06,109.93-53,150-16,46-37.19,58.27-66,125-27.6,92.28-28.24,149.28-30,300-4.42,176.27,25.77,243.17,160,317,27.82,18.12,26.43,71.47,68,162,73,159,162,165.83,180,189,30.34,39.07-72.71,39.54-75,43-3.89,5.89-102.3-69.39-183-144-141.5-130.84-164.21-319.87-176-418-5-48.21,1.58-306.51,4-403,8.68-345.62-.14-390.86,45-438C1441.26,599.84,1575.85,585.16,1583,600Z"/><path class="cls-9" d="M2084,631c-3.62,27.35,67.15,31.38,113,101,2.39,3.62,48.38,75.64,32,158-8.41,42.28-25.23,46.94-23,78,3.33,46.44,42.89,63,77,112,28.71,41.26,34.81,81.18,47,161,10.3,67.4,21.84,142.94-4,234-19.6,69.07-55.89,116.62-104,182-33.61,45.67-46.14,54.61-82,98-72.12,87.25-153,264-153,264s108.52-35.18,170-88c159.17-136.73,193.9-328.42,197-347,7-42,6.66-121,6-279-.15-35.78-.35-77.44-2-131-5.6-182.32-9.06-275.61-41-380-25.26-82.56-55-179.67-127-198C2143.35,584.13,2087.13,607.39,2084,631Z"/><g id="Hair"><path class="cls-10" d="M1334,1242s-6.71,172.44,21,281.63c5.34,21,16.58,65.24,51.79,106.83s64,44.52,95.5,85.78c28.73,37.67,24,60.53,42.08,108.45,43,114.21,153.48,206.83,199.09,187.75,16.73-7,25.47-29.34,27.52-43.7,5.82-40.83-27-92.26-27-92.26s43,14.59,101.43,14.57c63.41,0,96.58-9.71,96.58-9.71s-42.45,48.31-36.69,93.88c1.89,15,11.58,34.47,27.51,40.46,47.26,17.77,136.09-88.31,184.52-166.71,38.94-63,34.07-79.56,71.22-132.73,52-74.42,93.19-79.53,129.49-126.25,66.93-86.14,35.61-278.39,35.61-278.39h13.48s25.28,246.25-10.25,360.94c-28.82,93-86.64,279.73-268.68,414.36-68.76,50.85-147.77,109.28-257.36,111.68-252,5.53-414.52-290.7-433.78-327-75.5-142.17-81.71-283.21-87.4-412.74-3.23-73.41,14.57-236.31,14.57-236.31S1331.38,1237.29,1334,1242Z"/><path class="cls-10" d="M1844.91,1662.79c-37.29.22-39.44,14.62-82,22.66-60.6,11.44-90-18.12-139.85-5.78-56.69,14-77,56.5-77,56.5-16.22-.86-8.18-80.87,34.53-110.07,36.82-25.17,61.79-1.65,124.09-31.29,29-13.78,40.75-20,60.43-19.42,38.87,1.11,49.79,40.72,81.47,37.76,25.68-2.39,29.08-27.13,62-35.61,19.52-5,30.35,3,68,15.11,75,24.16,85.4,9.63,115.45,29.14,47,30.51,58.74,99.49,48,107.9,0,0-11.42-40.6-69.6-51.25-50.57-9.27-81.69,16.43-138.12,7C1888.32,1678.1,1883.37,1662.56,1844.91,1662.79Z"/><path class="cls-10" d="M1745.91,1121.37c12.27-15.47-7.74-64.25-43.7-85-31.32-18.05-50.53-.86-141.63-2.43-53.95-.93-58.84-7.15-80.12,0-60.29,20.27-91.58,93.93-83.36,101.16,5.93,5.22,26.21-29.53,75.27-45.32,40.25-13,80.53-4.5,159.43,13C1710.41,1120.15,1736.23,1133.57,1745.91,1121.37Z"/><path class="cls-10" d="M1931.23,1114.9c-9.71-17.56,18.34-61,55.85-77.69,30.74-13.67,46.21.25,127.05,3.23,63.95,2.36,66.83-5.89,90.65,2.43,67.06,23.44,99.61,108.27,90.64,115.73-6.8,5.65-31-41.41-89.84-56.92-26.76-7.06-45.74.12-101.16,6.75C1947.45,1127.19,1935.37,1122.36,1931.23,1114.9Z"/><path class="cls-10" d="M1334,1242s3.23-145.67,22.66-182.9,46.13-59.08,61.5-105.21-21.85-137.58-21-165.09,9.71-119,124.63-140.82,216.89-25.9,346.38-17.81S2151.36,662.51,2174,670.6c19.95,7.12,73.65,98.73,84.17,166.71s-19.42,85,29.13,144.06,66.37,330.19,66.37,330.19h13.48s23.7-107.19,31.84-124.63c7.41-15.92,28-97.12,17.8-223.37s-23.47-216.08-40.46-268.68-51.8-68.6-51.8-68.6-1.62-59.27-37.23-104.59-185.05-159.16-297.82-182.9-315.08-23.74-439.17,46.4S1363.65,554.06,1334,619.34s-56.65,229.84-58.81,324.8,11.33,202.49,11.33,202.49,28.86,44.34,37.77,75.91Z"/></g><g id="Mouth"><polygon class="cls-11" points="1631.26 1703.79 1738.08 1714.86 1820.09 1729.02 1866.49 1716.41 1936.49 1710.58 2038.06 1710.58 2015.4 1756.26 1905.34 1814.13 1813.89 1833.55 1689.26 1788.79 1647.98 1745.34 1631.26 1703.79"/><path class="cls-12" d="M1664.17,1717.42s-2,15.58,0,17.53,18,7.15,20.1,7,2.29-1.35,2.29-1.35-.14,4.65,1.62,7.15,9.44,10.18,17.67,11.6a17.66,17.66,0,0,0,13.89-3.65s3.71,10.46,10.93,11.6,19.28,4.19,23.87,4,7.55-4,7.55-4,1.35,10.46,7.83,13,42.15,8,48.15,7.29,11.73-8,11.73-8,5.68,8.23,11.17,8.9,36.35.14,41.1-1.28,10.42-4.86,12.34-8.3a18.2,18.2,0,0,0,2.23-6.07s2.56,3.51,9.24,4.32,23.53-.27,27.78-2.5,7.69-9.1,7.69-9.1,4.86,5.11,10.62,5.77,23.17-4.71,26.51-6.48,5.76-10.62,5.76-10.62a6.61,6.61,0,0,0,6.34,3c4.18-.61,16.66-8.1,18.75-11.74,1.55-2.69,1.62-16.77,1.55-23.9a4.52,4.52,0,0,0-4.22-4.47c-4.9-.31-12.7-.63-15.27.32-3.84,1.41-9.84,5.8-9.84,5.8s-3.92-4.39-9.18-5.26-15.71-1.69-20.63.13-11.6,6.48-11.6,6.48-5.94-6.55-8.23-6.61-.94-.07-2.29-.07-11.33,1.28-16.86,3.71-13.63,9.44-13.63,9.44-11.6-3.44-16.18-3.1-39.39,1.55-44.11,4-8.9,5.13-8.9,5.13-5.06-7.42-9.85-8.09-40.46-5-46.53-3.37-8.9,3.64-8.9,3.64-7.09-4.72-8.77-5-25.16-2.43-28.06-1.22-4.45.54-4.45.54-5.87-3.77-9.71-4.45-40.46-4.32-40.46-4.32Z"/><path class="cls-13" d="M2064.77,1703.25c-11.62-5-39.55-.14-83.36,1.62-58.34,2.35-88-9.87-109.66-4.45-18.38,4.61-26.79,11.94-37.65,12.14-11.37.21-10.92-1.41-28.71-9.31-30.09-13.35-53.06,4.06-99.14,1.62-44-2.32-84.57-14.56-100-10.52-14.24,3.75,17,45.21,29.54,59.08,37.54,41.64,39.57,49.45,77.7,81.74,51.16,43.34,108.34,39.11,122.6,38.89,57.94-.9,85.38-1.66,122.44-31.42,49.72-39.94,66.13-56.59,90.81-96.49C2058.09,1732.08,2077,1708.5,2064.77,1703.25Zm-57.46,39.39c-9.44,15-31,25.63-40.47,30.21s-58.29,12.5-79.85,17.81c-18.8,4.63-31,11.57-46.4,11.33-13.31-.21-22.93-7.29-44.24-10.25s-34.26-1.89-65.28-10.79c-44.18-12.68-68.58-44.72-77.43-60.16a4.16,4.16,0,0,1,4.41-6.15c8.33,1.62,20.72,3.95,27.16,4.8,10.25,1.35,55.57,2.43,78.77,5.94s51.26,10.52,74.46,10.79,51-10.52,74.45-14c21-3.14,91.74-3.69,106.34-3.77a1.51,1.51,0,0,1,1.31,2.28C2017.78,1725.35,2011.38,1736.18,2007.31,1742.64Z"/></g><g id="RightEye"><path class="cls-14" d="M2157.84,1232.65s-29.54-31.76-66.37-35.2-66.76,6.07-82.14,17.6-2.83,27.72-2.83,27.72,37,11.24,73.26,11.33C2139,1254.24,2157.84,1232.65,2157.84,1232.65Z"/><path class="cls-10" d="M2177.26,1227.8c-4.86-4.25-19.83-19.43-58.67-33.59s-70,0-70,0l6.61,4a35.92,35.92,0,0,0-9.58,24.32,36.68,36.68,0,0,0,17.25,30.79c5.56.47,11.24.75,16.9.77a202.1,202.1,0,0,0,29-1.91,36.51,36.51,0,0,0,15.59-29.65,37.26,37.26,0,0,0-4.25-16.88,136.81,136.81,0,0,1,37.5,26.79c4,1.49,11.76,5.27,19.28,7.24a111.91,111.91,0,0,0,18.86,3.11S2182.12,1232,2177.26,1227.8Z"/><path class="cls-15" d="M2014.68,1211.48a239.5,239.5,0,0,0-22.75,15.37c-4.83,3.71-15.56,11.73-12.41,17,2.29,3.81,3.85,2.18,22.16,2.33,16.22.14,25.38,1.7,25.38,1.7s-19.89-3-23.53-13.47C1999.72,1223.4,2014.68,1211.48,2014.68,1211.48Z"/><circle class="cls-14" cx="2069.15" cy="1230.97" r="3.98"/><circle class="cls-14" cx="2069.89" cy="1215.52" r="3.24"/></g><g id="LeftEye"><path class="cls-14" d="M1541.7,1210.13s35.33-37.77,84.16-29.68c27.12,4.5,49.67,12.41,65.23,19.8,12.45,5.91,15.58,11.49,17.86,14.73,2,2.85-.92,7-13.82,11-20.1,6.21-52.63,12-80.06,11.65C1570,1237.1,1541.7,1210.13,1541.7,1210.13Z"/><path class="cls-10" d="M1662.15,1179.32s-38.61-18.06-81.07-5.21c-30.75,9.31-47.48,25.5-56.11,32.24s-21,11.87-21,11.87,17,4.76,30.21-2.7c9-5.08,16.37-14.67,29.14-22.12,6.94-4.05,16.85-7.18,25.81-9.5a35.74,35.74,0,0,0-8,22.45,36.5,36.5,0,0,0,15.41,29.53,114.44,114.44,0,0,0,18.58,1.76,243.77,243.77,0,0,0,29.1-1.56,36.54,36.54,0,0,0,15.68-29.73,35.59,35.59,0,0,0-6-19.73Z"/><path class="cls-15" d="M1683,1196.65a103.82,103.82,0,0,1,24.66,13.62c4.83,3.71,15.56,10.11,12.41,15.38-2.29,3.81-2.23,3.8-20.54,3.95-16.22.13-25.38,1.7-25.38,1.7s19.88-3,23.53-13.48C1701.53,1206.82,1683,1196.65,1683,1196.65Z"/><circle class="cls-14" cx="1610.34" cy="1200.02" r="3.37"/><circle class="cls-14" cx="1608.6" cy="1215.76" r="4.28"/></g><g id="Glasses"><path class="cls-16" d="M2416.32,1173.61l-6.39-37.26-58.67,51.12s-63.34-2.88-102.24-15.65c-88.32-29-172.47-15.91-271.39-.54-65.81,10.23-77.45,20.8-126,18.61-51.9-2.33-68-15.74-131.24-31.69-39.91-10.06-119.67-30.16-212.43-22.66-86.06,7-165.91,6.47-165.91,6.47l-58.24-36.87-8.9,34.8s6.34-.93,10.22,7.33c2.82,6,.67,9.85,1.35,16.46,1,9.77,9.31,17.7,25.9,33.18,13.78,12.86,20.68,19.3,30.08,24.41,10.45,5.69,17.35,7,23.46,15,5.86,7.61,6.83,15.87,7.29,19.43,3.84,30,15.58,77.5,23.47,97.52,12.89,32.75,38.79,51.28,48.56,58.27,34,24.31,124.63,26.7,124.63,26.7s108.16,2.28,146.88-23.06c11.21-7.34,46.13-35.61,67.17-80.53,11.87-25.32,18.12-49.53,36-72.83,11.3-14.72,26.8-13.46,30.75-13.76,5-.38,17.45.84,28.73,11.19,9.08,8.34,11.57,17.43,14,26.71,5.87,22.13,8,35.18,17.4,61.38,16.94,47.48,62.24,81.44,69.46,86.18C2015,1456.29,2105,1461,2105,1461s92.27,1.56,128.41-15.38c25.9-12.14,53.12-31.41,66.9-79,6.48-22.4,6.07-39.67,20.64-63.53,3.88-6.36,5.3-10.83,29.54-34,12.26-11.72,29.2-27.49,50.17-45.73-3.14-24.32,2.45-36.38,8.91-42.89ZM1780.71,1284c-13.61,76.43-77.75,117-80.93,119-50.11,30.63-165.1,15.37-165.1,15.37s-83.44-11.59-108.44-40.46c-20.19-23.32-28.33-88.21-28.33-88.21s-9.89-78.94,12.95-105.21c5.11-5.88,17.84-18.29,70.41-26.71,30.69-4.91,78.76-9.07,166.71,5.67,106.68,17.88,121.46,38.33,126.25,46.13C1789.53,1234.49,1784.43,1263.13,1780.71,1284Zm515,42.3s-14.45,64.13-36.29,85.92c-27,27-109.48,32.47-109.48,32.47s-115.78,6.86-163.54-27.33c-3-2.18-64.05-47.32-72.07-124.53-2.19-21.13-5.19-50.06,11.87-73.79,5.35-7.43,21.58-26.76,129.27-36.83,88.79-8.31,136.43-.67,166.69,6.46,51.81,12.22,63.61,25.52,68.28,31.76C2311.33,1248.33,2295.73,1326.34,2295.73,1326.34Z"/></g></g></svg>